<svg width="30" height="30" viewBox="0 0 30 30" fill="none" xmlns="http://www.w3.org/2000/svg">
<path d="M22.3889 9.95077C22.3889 7.97146 21.6026 6.07323 20.203 4.67365C18.8034 3.27407 16.9052 2.4878 14.9259 2.4878C12.9466 2.4878 11.0484 3.27407 9.64878 4.67365C8.2492 6.07323 7.46293 7.97146 7.46293 9.95077C7.46293 18.6576 3.73145 21.1452 3.73145 21.1452H26.1203C26.1203 21.1452 22.3889 18.6576 22.3889 9.95077Z" fill="#222222"/>
<path d="M22.3889 9.95077C22.3889 7.97146 21.6026 6.07323 20.203 4.67365C18.8034 3.27407 16.9052 2.4878 14.9259 2.4878C12.9466 2.4878 11.0484 3.27407 9.64878 4.67365C8.2492 6.07323 7.46293 7.97146 7.46293 9.95077C7.46293 18.6576 3.73145 21.1452 3.73145 21.1452H26.1203C26.1203 21.1452 22.3889 18.6576 22.3889 9.95077Z" fill="black" fill-opacity="0.2"/>
<path d="M17.0779 26.1201C16.8592 26.4971 16.5453 26.81 16.1677 27.0276C15.79 27.2451 15.3619 27.3596 14.9261 27.3596C14.4902 27.3596 14.0621 27.2451 13.6844 27.0276C13.3068 26.81 12.9929 26.4971 12.7742 26.1201" stroke="#222222" stroke-width="2.02107" stroke-linecap="round" stroke-linejoin="round"/>
<path d="M17.0779 26.1201C16.8592 26.4971 16.5453 26.81 16.1677 27.0276C15.79 27.2451 15.3619 27.3596 14.9261 27.3596C14.4902 27.3596 14.0621 27.2451 13.6844 27.0276C13.3068 26.81 12.9929 26.4971 12.7742 26.1201" stroke="black" stroke-opacity="0.2" stroke-width="2.02107" stroke-linecap="round" stroke-linejoin="round"/>
</svg>
