<svg width="18" height="18" viewBox="0 0 18 18" fill="none" xmlns="http://www.w3.org/2000/svg">
<path d="M17.6283 9.51395V5.94922C17.6283 5.29576 17.0222 4.82981 16.3416 4.82981H14.9682L15.4665 4.14863L9.63433 0L9.0192 0.79121L14.0176 4.32373L12.8008 5.89584H14.088L14.4651 5.46939H15.8838C16.435 5.46939 16.9618 5.84766 16.9618 6.37666V10.0212L16.6468 10.2571C16.5471 10.3193 16.4169 10.3563 16.2892 10.3563L16.2823 10.3576L12.3212 10.3561C11.969 10.3561 11.6319 10.6301 11.6319 10.9682V13.1309C11.6319 13.469 12.0149 13.7845 12.3672 13.7845H16.0653C16.2287 13.7845 16.4009 13.704 16.5137 13.6069L16.9621 13.2295V16.4225C17.4063 16.2242 17.6284 15.8298 17.6284 15.3752V12.698L17.7641 12.5534C17.842 12.452 17.8505 12.3279 17.8505 12.1923V10.0297C17.8505 9.81215 17.6283 9.62251 17.6283 9.51395ZM13.4937 12.9526C12.9742 12.9526 12.5534 12.5483 12.5534 12.0499C12.5534 11.5511 12.9744 11.1469 13.4937 11.1469C14.0132 11.1469 14.4342 11.5511 14.4342 12.0499C14.434 12.5483 14.0129 12.9526 13.4937 12.9526Z" fill="url(#paint0_linear_499_58)"/>
<path d="M11.222 13.5866V10.5202C11.222 10.1817 11.5427 9.94658 11.8985 9.94658H16.1594V7.49495C16.1594 6.83996 15.5073 6.31506 14.8193 6.31506H1.15975C0.898665 6.31506 0.687308 6.1363 0.687308 5.8878C0.687308 5.63931 0.898936 5.46054 1.15975 5.46054H3.14484L3.65234 4.81963L1.26724 4.81977C0.579387 4.81977 0 5.28661 0 5.94132V16.612C0 17.2667 0.579351 17.8505 1.26724 17.8505H14.819C15.507 17.8505 16.159 17.2667 16.159 16.612V14.219H11.8981C11.5424 14.219 11.222 13.9253 11.222 13.5866Z" fill="url(#paint1_linear_499_58)"/>
<path d="M12.5299 5.89039L13.7167 4.33653L7.91793 0.178505L3.5701 5.89063H4.8255L8.13131 1.55763L12.2996 4.54251L11.3063 5.89066L12.5299 5.89039Z" fill="url(#paint2_linear_499_58)"/>
<path d="M6.30712 4.96913C6.08349 5.23314 5.99088 5.47053 6.01713 5.89066H9.5829C9.46259 5.47053 9.20671 5.17419 8.83067 4.90188C7.98568 4.29039 6.85582 4.32151 6.30712 4.96913Z" fill="url(#paint3_linear_499_58)"/>
<defs>
<linearGradient id="paint0_linear_499_58" x1="1.71811" y1="6.90444" x2="16.4357" y2="7.0501" gradientUnits="userSpaceOnUse">
<stop stop-color="#436EDD"/>
<stop offset="0.53125" stop-color="#AF7CE3"/>
<stop offset="1" stop-color="#AF69C7"/>
</linearGradient>
<linearGradient id="paint1_linear_499_58" x1="1.71811" y1="6.90444" x2="16.4357" y2="7.0501" gradientUnits="userSpaceOnUse">
<stop stop-color="#436EDD"/>
<stop offset="0.53125" stop-color="#AF7CE3"/>
<stop offset="1" stop-color="#AF69C7"/>
</linearGradient>
<linearGradient id="paint2_linear_499_58" x1="1.71811" y1="6.90444" x2="16.4357" y2="7.0501" gradientUnits="userSpaceOnUse">
<stop stop-color="#436EDD"/>
<stop offset="0.53125" stop-color="#AF7CE3"/>
<stop offset="1" stop-color="#AF69C7"/>
</linearGradient>
<linearGradient id="paint3_linear_499_58" x1="1.71811" y1="6.90444" x2="16.4357" y2="7.0501" gradientUnits="userSpaceOnUse">
<stop stop-color="#436EDD"/>
<stop offset="0.53125" stop-color="#AF7CE3"/>
<stop offset="1" stop-color="#AF69C7"/>
</linearGradient>
</defs>
</svg>
